<svg xmlns="http://www.w3.org/2000/svg" viewBox="0 0 512 512" role="img" aria-label="以終為始週計畫表">
  <rect width="512" height="512" rx="108" fill="#2d6a5f"/>
  <path fill="#f6f7f4" d="M128 108h256c28 0 52 23 52 52v220c0 28-24 52-52 52H128c-28 0-52-24-52-52V160c0-29 24-52 52-52Z"/>
  <path fill="#174e46" d="M76 176h360v56H76z"/>
  <path fill="#bc7c2a" d="M146 72h38v84h-38zm182 0h38v84h-38z"/>
  <g fill="#2d6a5f">
    <rect x="126" y="270" width="72" height="48" rx="10"/>
    <rect x="220" y="270" width="72" height="48" rx="10"/>
    <rect x="314" y="270" width="72" height="48" rx="10"/>
    <rect x="126" y="342" width="72" height="48" rx="10"/>
    <rect x="220" y="342" width="72" height="48" rx="10"/>
  </g>
  <path fill="#b85f72" d="M336 360c35-30 58-52 58-78 0-19-13-32-31-32-12 0-22 6-27 16-6-10-16-16-28-16-18 0-31 13-31 32 0 26 23 48 59 78Z"/>
</svg>
